<svg width="512" height="512" viewBox="0 0 512 512" fill="none" xmlns="http://www.w3.org/2000/svg">
<g clip-path="url(#clip0_10_94)">
<path d="M352 0H160C71.6344 0 0 71.6344 0 160V352C0 440.366 71.6344 512 160 512H352C440.366 512 512 440.366 512 352V160C512 71.6344 440.366 0 352 0Z" fill="#33A9FF"/>
<g opacity="0.2">
<path d="M330.069 341.553C325.134 341.553 320.904 339.438 318.084 334.503C313.855 328.159 315.969 318.994 323.019 314.764L394.221 271.056C394.221 271.056 394.221 271.056 394.221 270.351C394.221 269.646 394.221 270.351 394.221 269.646L323.019 225.938C316.674 221.708 314.559 213.249 318.084 206.199C322.314 199.854 330.774 197.739 337.823 201.264L412.55 247.792L413.96 249.202C419.6 254.842 422.42 262.597 422.42 270.351C422.42 278.106 419.6 285.86 413.96 291.5L412.55 292.91L337.823 339.438C335.004 340.848 332.184 341.553 330.069 341.553Z" fill="#231F20"/>
<path d="M182.026 341.553C179.206 341.553 177.091 340.848 174.976 339.438L100.249 292.91L98.8395 292.205C93.1998 286.565 90.3799 278.811 90.3799 271.056C90.3799 263.302 93.1998 255.547 98.8395 249.907L100.249 248.497L174.976 201.969C181.321 197.74 190.485 199.854 194.715 206.904C198.945 213.249 196.83 222.413 189.78 226.643L118.579 270.351C118.579 270.351 118.579 270.351 118.579 271.056C118.579 271.761 118.579 271.056 118.579 271.761L189.78 315.469C196.125 319.699 198.24 328.159 194.715 335.208C191.895 339.438 186.96 341.553 182.026 341.553Z" fill="#231F20"/>
</g>
<g opacity="0.2">
<path d="M210.225 405C208.815 405 206.7 405 205.29 404.295C198.24 401.475 194.715 393.016 196.83 385.966L288.476 146.277C291.296 139.227 299.756 135.702 306.805 137.817C313.855 140.637 317.38 149.097 315.265 156.146L223.619 395.835C221.504 401.475 215.864 405 210.225 405Z" fill="#231F20"/>
</g>
<path d="M330.069 327.454C325.134 327.454 320.904 325.339 318.084 320.404C313.855 314.059 315.969 304.895 323.019 300.665L394.221 256.957V256.252L323.019 212.544C316.674 208.314 314.559 199.854 318.084 192.805C322.314 186.46 330.774 184.345 337.823 187.87L412.55 234.398L413.96 235.808C425.239 247.087 425.239 266.121 413.96 278.106L412.55 279.516L337.823 326.044C335.004 326.749 332.184 327.454 330.069 327.454Z" fill="white"/>
<path d="M182.026 327.454C179.206 327.454 177.091 326.749 174.976 325.339L100.249 278.811L98.8395 278.106C87.56 266.826 87.56 247.792 98.8395 235.808L100.249 234.398L174.976 187.87C181.321 183.64 190.485 185.755 194.715 192.805C198.945 199.149 196.83 208.314 189.78 212.544L118.579 256.252V256.957L189.78 300.665C196.125 304.895 198.24 313.354 194.715 320.404C191.895 325.339 186.96 327.454 182.026 327.454Z" fill="white"/>
<path d="M210.225 390.901C208.815 390.901 206.7 390.901 205.29 390.196C198.24 387.376 194.715 378.916 196.83 371.867L288.476 132.177C291.296 125.128 299.756 121.603 306.805 123.718C313.855 126.538 317.38 134.997 315.265 142.047L223.619 381.736C221.504 387.376 215.864 390.901 210.225 390.901Z" fill="white"/>
</g>
<defs>
<clipPath id="clip0_10_94">
<rect width="512" height="512" fill="white"/>
</clipPath>
</defs>
</svg>
